<svg width='100%' height='100%' xmlns="http://www.w3.org/2000/svg" xmlns:svg="http://www.w3.org/2000/svg" id='testiranje' viewbox="0 0 430 100">

 <g>
  <title>uKuvanju.com</title>
  <path fill="black" id="u" d="m64.659,64.632c0.288,-8.497 0.432,-13.633 -0.144,-22.13c-0.288,-3.745 -3.313,-2.833 -3.313,-2.833c-1.68,0.72 -1.92,2.64 -2.016,4.176c-0.24,2.448 -0.288,4.896 -0.432,7.345c0,0.576 -0.096,1.104 -0.384,1.584c-3.313,5.185 -6.049,11.329 -10.993,14.401c-2.496,1.632 -2.304,-3.408 -2.208,-4.464c0.048,-0.288 0.816,-14.449 0.768,-16.993c-0.096,-5.809 -0.096,-11.137 -2.304,-15.842c-1.632,-2.784 -3.648,-3.984 -6.673,-3.984c-0.576,0 -1.056,0.672 -0.864,1.2c0.096,0.336 1.296,3.457 1.248,4.849c0,1.632 0.144,12.577 0.096,16.369c0,2.592 0.048,13.201 0.288,15.938c0.24,3.264 1.2,6.385 4.417,7.345c4.896,1.488 8.737,-2.976 11.137,-6.097c1.536,-2.016 3.024,-4.176 4.608,-6.096c0.384,-0.816 0.625,0.912 0.625,1.104c-0.096,3.744 -0.816,7.345 0.432,10.705c0.576,1.584 3.457,3.457 5.088,2.4c1.44,-0.912 0.528,-7.296 0.624,-8.977z" class="st0"/>
  <g id="com">
   <path id="svg_3" d="m349.416,33.573c-0.048,0.096 -0.096,0.24 -0.096,0.48c0,0.864 1.297,2.208 1.729,5.232c0.623,4.656 0.191,9.697 -1.44,13.921c-1.681,3.121 -3.313,1.824 -3.888,1.2c-1.441,-1.776 -1.585,-4.368 -1.729,-6.625c-0.145,-3.648 -0.096,-7.489 1.104,-10.657c0.049,-0.144 0.625,-1.824 1.537,-0.864c0.383,0.48 0.719,1.872 1.392,1.728c0.432,-0.048 0.672,-1.248 0.624,-2.208c-0.672,-3.937 -4.32,-4.513 -6.721,-2.448c0,0 -3.21,3 -3.027,13.376c-9.168,15.903 -10.443,17.106 -12.332,17.106c-4.943,-0.24 -5.615,-7.729 -5.615,-11.137c0.047,-3.072 0.287,-19.298 5.472,-15.938c0.433,0.336 2.833,2.736 1.248,8.017c0,0 -0.432,0.912 0.864,1.008c0.768,0.096 1.872,-1.968 1.969,-4.705c0,-4.032 -1.729,-8.113 -5.905,-8.785c-10.849,-2.064 -9.553,21.698 -9.553,21.698c0.336,5.232 1.921,10.369 7.009,12.433c4.225,1.68 8.353,-0.528 10.417,-4.032c2.021,-3.072 4.768,-8.307 6.679,-12.385c0.58,4.049 2.182,7.712 5.656,9.313c4.896,1.44 7.057,-2.928 8.016,-6.816c0.721,-2.736 1.104,-6.625 0.528,-11.953c-0.337,-2.302 -1.442,-7.823 -3.938,-6.959z" class="st0"/>
   <path id="svg_4" d="m392.953,58.392c-1.055,3.408 -3.023,9.265 -4.127,10.225c-1.585,1.392 -1.873,-1.056 -1.873,-1.056l0,-15.65c0,-3.889 -2.305,-11.041 -6.816,-6.529c-1.104,1.729 -2.352,4.801 -3.313,7.057c-0.384,0.672 -0.432,0 -0.432,0c-0.049,-2.688 -0.336,-7.152 -2.832,-8.833c-4.609,-2.353 -7.537,8.688 -8.497,10.657c-0.097,0.192 -0.433,1.104 -0.864,0.912l0,-21.026c0,-2.064 -1.824,-4.464 -3.984,-4.464c-1.057,-0.096 -1.488,1.392 -1.488,2.16c0,1.632 -0.191,29.715 0,31.635c0.24,2.112 2.496,3.072 4.225,2.448c1.44,-0.48 3.648,-8.545 5.473,-14.161c0.24,-0.768 1.152,-3.648 1.872,-3.648c0,0 0.336,0 0.384,1.536c0.049,4.656 -0.048,11.809 0,13.105c0.192,4.801 4.465,3.696 5.041,2.785c0.576,-0.864 0.623,-2.785 0.672,-4.657c0.863,-2.736 1.775,-5.856 2.641,-8.4c0.239,-0.912 1.151,-3.696 1.871,-3.696c0,0 0.336,0.048 0.385,1.584c0.048,4.656 -0.049,17.761 0,19.01c0.048,1.2 0.336,2.016 0.768,2.592c3.889,5.232 7.824,-0.96 7.824,-1.008c2.209,-2.88 4.178,-8.353 5.329,-11.857c1.63,-3.794 -1.49,-4.61 -2.259,-0.721z" class="st0"/>
  </g>
  <g id="kuvanju">
   <g id="svg_6">
    <path id="svg_7" d="m104.765,70.2l-10.008,-17.064l0,-0.288l9.576,-15.768c0.335,-0.528 0.407,-0.959 0.216,-1.296c-0.192,-0.335 -0.576,-0.504 -1.152,-0.504l-6.984,0c-1.104,0 -1.92,0.48 -2.448,1.44l-8.64,15.336c-0.098,0.186 -0.167,0.369 -0.221,0.552l0,-29.712c0,-1.008 -0.504,-1.512 -1.512,-1.512l-6.12,0c-1.008,0 -1.512,0.504 -1.512,1.512l0,47.592c0,1.008 0.504,1.512 1.512,1.512l6.12,0c1.008,0 1.512,-0.504 1.512,-1.512l0,-16.583c0.054,0.177 0.123,0.353 0.221,0.527l9.144,16.056c0.384,0.625 0.756,1.033 1.116,1.224c0.36,0.192 0.947,0.288 1.764,0.288l6.192,0c0.624,0 1.056,-0.18 1.296,-0.54c0.239,-0.36 0.216,-0.78 -0.072,-1.26z" class="st1"/>
    <path id="svg_8" d="m138.095,35.28l-6.048,0c-1.008,0 -1.512,0.504 -1.512,1.512l0,21.816c0,3.648 -1.656,5.472 -4.968,5.472l-2.664,0c-1.488,0 -2.556,-0.324 -3.204,-0.972s-0.972,-1.739 -0.972,-3.276l0,-23.04c0,-1.008 -0.504,-1.512 -1.512,-1.512l-6.12,0c-1.008,0 -1.512,0.504 -1.512,1.512l0,23.472c0,3.792 0.947,6.696 2.844,8.712c1.896,2.016 4.691,3.024 8.388,3.024l2.376,0c1.487,0 2.904,-0.324 4.248,-0.972c1.343,-0.648 2.279,-1.62 2.808,-2.916l0.288,0l0,2.376c0,1.008 0.504,1.512 1.512,1.512l6.048,0c1.056,0 1.584,-0.504 1.584,-1.512l0,-33.696c0,-1.008 -0.529,-1.512 -1.584,-1.512z" class="st1"/>
    <path id="svg_9" d="m174.959,35.28l-6.336,0c-1.01,0 -1.609,0.504 -1.801,1.512l-6.048,27.072l-0.504,0l-6.192,-27.072c-0.192,-1.008 -0.769,-1.512 -1.728,-1.512l-6.336,0c-1.008,0 -1.368,0.504 -1.08,1.512l9,33.624c0.288,1.056 0.936,1.584 1.944,1.584l9.143,0c1.104,0 1.752,-0.528 1.945,-1.584l9.072,-33.624c0.289,-1.008 -0.071,-1.512 -1.079,-1.512z" class="st1"/>
    <path id="svg_10" d="m209.085,35.28l-16.632,0c-3.793,0 -6.721,1.008 -8.784,3.024c-2.064,2.016 -3.096,4.92 -3.096,8.712l0,13.248c0,3.792 1.031,6.696 3.096,8.712c2.063,2.016 4.991,3.024 8.784,3.024l1.728,0c1.487,0 2.904,-0.324 4.248,-0.972s2.279,-1.62 2.809,-2.916l0.288,0l0,2.376c0,1.008 0.504,1.512 1.512,1.512l6.048,0c1.056,0 1.584,-0.504 1.584,-1.512l0,-33.696c-0.001,-1.008 -0.529,-1.512 -1.585,-1.512zm-7.559,23.328c0,3.648 -1.656,5.472 -4.969,5.472l-2.664,0c-1.536,0 -2.616,-0.324 -3.239,-0.972c-0.625,-0.648 -0.937,-1.739 -0.937,-3.276l0,-12.384c0,-1.536 0.312,-2.628 0.937,-3.276c0.623,-0.648 1.703,-0.972 3.239,-0.972l6.769,0c0.576,0 0.864,0.264 0.864,0.792l0,14.616z" class="st1"/>
    <path id="svg_11" d="m237.381,35.28l-2.303,0c-3.649,0 -6.001,1.296 -7.057,3.888l-0.288,0l0,-2.376c0,-1.008 -0.504,-1.512 -1.512,-1.512l-6.12,0c-1.008,0 -1.512,0.504 -1.512,1.512l0,33.696c0,1.008 0.504,1.512 1.512,1.512l6.12,0c1.008,0 1.512,-0.504 1.512,-1.512l0,-21.816c0,-3.647 1.656,-5.472 4.969,-5.472l2.591,0c1.535,0 2.629,0.324 3.277,0.972c0.646,0.648 0.971,1.741 0.971,3.276l0,23.04c0,1.008 0.504,1.512 1.512,1.512l6.049,0c1.055,0 1.584,-0.504 1.584,-1.512l0,-23.472c0,-7.823 -3.77,-11.736 -11.305,-11.736z" class="st1"/>
   </g>
   <g id="svg_12">
    <path id="svg_13" d="m264.236,35.28l-6.119,0c-1.008,0 -1.512,0.504 -1.512,1.512l0,33.696c0,2.16 -0.396,3.624 -1.189,4.392c-0.791,0.768 -2.268,1.152 -4.428,1.152l-2.016,0c-1.008,0 -1.512,0.504 -1.512,1.512l0,4.896c0,1.008 0.504,1.512 1.512,1.512l4.824,0c3.744,0 6.672,-1.033 8.783,-3.096c2.111,-2.064 3.168,-4.968 3.168,-8.712l0,-35.352c0.001,-1.008 -0.503,-1.512 -1.511,-1.512z" class="st1"/>
    <path id="svg_14" d="m264.309,21.384l-6.264,0c-0.961,0 -1.439,0.48 -1.439,1.44l0,6.264c0,0.961 0.479,1.44 1.439,1.44l6.264,0c0.959,0 1.439,-0.479 1.439,-1.44l0,-6.336c0,-0.911 -0.48,-1.368 -1.439,-1.368z" class="st1"/>
    <path id="svg_15" d="m302.18,35.28l-6.047,0c-1.01,0 -1.514,0.504 -1.514,1.512l0,21.816c0,3.648 -1.654,5.472 -4.967,5.472l-2.664,0c-1.488,0 -2.557,-0.324 -3.205,-0.972c-0.646,-0.648 -0.971,-1.739 -0.971,-3.276l0,-23.04c0,-1.008 -0.504,-1.512 -1.512,-1.512l-6.121,0c-1.008,0 -1.512,0.504 -1.512,1.512l0,23.472c0,3.792 0.947,6.696 2.844,8.712s4.692,3.024 8.389,3.024l2.375,0c1.488,0 2.904,-0.324 4.248,-0.972s2.279,-1.62 2.809,-2.916l0.287,0l0,2.376c0,1.008 0.504,1.512 1.514,1.512l6.047,0c1.055,0 1.584,-0.504 1.584,-1.512l0,-33.696c0,-1.008 -0.53,-1.512 -1.584,-1.512z" class="st1"/>
   </g>
  </g>
 </g>
</svg>