<svg width='100%' height='100%' xmlns="http://www.w3.org/2000/svg" xmlns:svg="http://www.w3.org/2000/svg"  id='userbg' viebox='0 0 1077 300' >
 <style type="text/css">
  <![CDATA[
	.st01{fill:#F4B754;}
	.st11{fill:#321A4C;}
	.st21{fill:#D8D8D8;}
]]>
 </style>
 <g>
  <title>Layer 1</title>
  <g id="purple">
   <rect id="svg_2" height="1007.73" width="274.692" class="st1" transform="matrix(0.7071,-0.7071,0.7071,0.7071,-170.1841,-15.016) " y="-375.08199" x="-317.24654"/>
   <path id="svg_3" d="m52.83889,657.36733l-713.279,-713.28l194.943,-194.942l713.279,713.279l-194.943,194.943zm-711.865,-713.28l711.865,711.866l193.529,-193.529l-711.865,-711.865l-193.529,193.528z"/>
  </g>
  <g stroke="null" id="orange">
   <rect stroke="#f5b755" stroke-width="3" id="svg_5" height="1007.73" width="320.857" class="st0" transform="matrix(0.8273466716051101,0.8273466716051101,-0.8273466716051101,0.8273466716051101,405.82643182340473,-1038.6161413166012) " y="-252.48256" x="1085.098"/>
   <path stroke="#f5b755" stroke-width="3" id="svg_6" d="m944.19134,750.28856l-266.28956,-266.28956l834.57879,-834.57528l266.28722,266.28956l-834.57645,834.57528zm-264.6351,-266.28956l264.6351,264.6351l832.92199,-832.92082l-264.63276,-264.6351l-832.92433,832.92082z"/>
  </g>
  <g id="user">
   <path id="svg_8" d="m404.35067,531.32689l-242.899,0c-33.277,0 -60.582,-33.847 -60.582,-75.372c0,-74.804 18.487,-161.269 93.007,-161.269c23.038,22.47 54.324,36.406 89.024,36.406s65.986,-13.937 89.024,-36.406c74.52,0 93.007,86.465 93.007,161.269c0.001,41.525 -27.304,75.372 -60.581,75.372zm-121.45,-218.438c-60.298,0 -109.219,-48.921 -109.219,-109.219s48.922,-109.218 109.219,-109.218s109.219,48.921 109.219,109.219s-48.921,109.218 -109.219,109.218z" class="st2"/>
  </g>
 </g>
</svg>